<svg version="1.1" id="Layer_1" xmlns="http://www.w3.org/2000/svg" xmlns:xlink="http://www.w3.org/1999/xlink" x="0px" y="0px"
	 width="100%" viewBox="0 0 496 496" enable-background="new 0 0 496 496" xml:space="preserve">
<path fill="#000000" opacity="1.000000" stroke="none" 
	d="
M261.847656,188.000031 
	C261.850281,177.500290 261.694336,167.496567 261.938202,157.502625 
	C262.041687,153.261566 260.477112,151.822266 256.396240,152.223511 
	C253.261734,152.531708 250.112427,152.337448 246.987839,153.170349 
	C243.587509,154.076736 241.089249,155.768646 240.750153,159.390778 
	C240.434677,162.760773 242.191528,165.071182 245.398666,166.257629 
	C245.967285,166.467972 246.453995,166.899750 247.150589,167.337372 
	C242.294067,168.890060 238.906845,167.477142 236.916367,163.289322 
	C234.865738,158.975006 236.294327,154.165634 240.529099,151.594757 
	C246.510864,147.963303 253.341675,148.419525 259.927307,147.773727 
	C264.821777,147.293762 269.731079,146.964645 275.808167,146.473404 
	C271.077576,143.208618 266.865814,142.700562 262.634369,142.294479 
	C252.368835,141.309341 242.455795,143.828613 232.439575,145.343369 
	C230.474854,145.640503 229.439774,146.611298 229.397583,148.602585 
	C229.376419,149.602173 229.354721,150.602051 229.354660,151.601791 
	C229.351898,192.434280 229.356903,233.266754 229.343933,274.099243 
	C229.342407,278.887970 230.060638,283.409363 233.641983,286.982147 
	C235.817047,289.152039 238.249268,290.715973 241.481506,290.922302 
	C243.171127,291.030121 245.279007,290.558380 246.614914,293.576202 
	C229.983765,293.576202 213.736374,293.576202 197.063797,293.576202 
	C198.025391,290.901276 200.052078,291.235687 201.691895,290.970917 
	C209.219452,289.755554 213.773117,285.020203 213.789856,277.494720 
	C213.879150,237.329422 213.871124,197.163727 213.780701,156.998428 
	C213.763306,149.264603 209.803375,145.635437 201.946335,145.302368 
	C200.395645,145.236649 198.581345,145.898285 197.279709,143.962646 
	C197.951309,142.062912 199.708725,141.997864 201.264786,141.851639 
	C218.832321,140.200943 236.057816,136.231415 253.554169,134.140717 
	C265.677734,132.692001 277.531647,133.962585 288.661133,139.318115 
	C298.708160,144.152771 305.979645,151.708176 309.519806,162.411697 
	C314.406616,177.186722 314.232239,191.923965 307.832428,206.215805 
	C296.008514,232.620392 266.972778,234.489090 250.885757,226.128769 
	C244.535202,222.828445 240.821747,217.604401 239.133041,210.780533 
	C238.734116,209.168503 238.318985,207.561264 239.824036,206.345490 
	C241.981964,206.559357 242.194641,208.286087 242.764603,209.555038 
	C244.946793,214.413254 248.708740,217.460754 253.536514,219.415329 
	C259.823334,221.960617 261.874817,220.696304 261.906952,213.998413 
	C261.947784,205.499237 261.874756,196.999512 261.847656,188.000031 
M294.725128,188.222824 
	C294.711792,184.060425 295.009827,179.868866 294.623383,175.741394 
	C293.681030,165.676102 290.525421,156.554092 282.292023,149.910507 
	C277.917023,146.380310 271.735413,148.495819 270.508881,154.056229 
	C270.155853,155.656555 270.247742,157.369171 270.245117,159.030487 
	C270.216278,177.184616 270.204132,195.338776 270.198669,213.492935 
	C270.196533,220.611572 271.858582,221.694305 278.076263,218.242035 
	C289.447449,211.928452 293.170746,201.140533 294.725128,188.222824 
z"/>
<path fill="#000000" opacity="1.000000" stroke="none" 
	d="
M266.511078,108.863983 
	C267.666168,115.915337 265.074341,121.028549 259.426239,123.484512 
	C254.306473,125.710747 248.004700,124.128586 244.592545,119.760315 
	C240.950729,115.098000 240.715652,108.539825 244.027237,103.987938 
	C247.379349,99.380348 253.592438,97.740654 259.224487,100.006432 
	C263.098816,101.565079 264.998016,104.812660 266.511078,108.863983 
z"/>
<path fill="#000000" opacity="1.000000" stroke="none" 
	d="
M235.585815,390.144440 
	C235.303436,382.239563 235.303436,374.524109 235.303436,366.808655 
	C235.841187,366.576202 236.378937,366.343750 236.916687,366.111328 
	C241.842819,370.608124 246.768951,375.104919 252.137573,380.005646 
	C253.046341,375.223236 253.004074,370.953094 251.684967,366.432556 
	C254.260559,365.246552 256.852173,365.858124 259.356232,365.875244 
	C260.454742,369.312042 260.559814,385.876862 259.319366,392.306915 
	C253.960541,387.416473 249.056305,382.940857 243.742493,378.091492 
	C242.511459,382.738922 243.752579,387.167816 243.236374,391.447632 
	C240.338959,393.193420 238.072235,391.967224 235.585815,390.144440 
z"/>
<path fill="#000000" opacity="1.000000" stroke="none" 
	d="
M151.417191,371.053375 
	C157.971863,369.430328 162.376846,370.638489 164.941330,374.921936 
	C167.227936,378.741241 167.376465,382.819397 164.923630,386.673889 
	C162.148621,391.034546 157.895645,392.094360 153.156799,391.077209 
	C149.083679,390.202881 146.490952,387.499481 145.667068,383.343048 
	C144.620636,378.064026 146.031067,373.817932 151.417191,371.053375 
z"/>
<path fill="#000000" opacity="1.000000" stroke="none" 
	d="
M274.531677,365.874207 
	C277.995178,366.372711 280.789124,367.227539 282.714081,369.905579 
	C284.584381,372.507629 285.591461,375.187866 283.998352,378.271881 
	C282.454102,381.261353 279.988586,382.590271 276.618042,382.279297 
	C275.662598,382.191132 274.692078,382.265808 273.728790,382.265808 
	C272.354309,385.364227 273.544800,388.382538 273.218506,391.311859 
	C266.636719,393.647217 265.088715,392.417969 265.578949,385.552185 
	C265.803894,382.401642 265.590546,379.222107 265.659149,376.057495 
	C265.727448,372.907898 265.541321,369.789703 264.563171,366.618774 
	C267.839447,365.166748 271.018005,366.047089 274.531677,365.874207 
M273.152924,374.819489 
	C273.321289,375.703339 273.158356,377.131317 274.624084,376.626434 
	C276.392883,376.017151 276.779572,374.366364 276.603851,372.637817 
	C276.497467,371.591217 275.956696,370.622864 274.827881,370.736938 
	C272.651917,370.956787 273.364746,372.828430 273.152924,374.819489 
z"/>
<path fill="#000000" opacity="1.000000" stroke="none" 
	d="
M300.004852,384.005524 
	C303.184021,384.794128 303.613861,387.133728 303.120209,389.819580 
	C302.624512,392.516479 300.392487,392.289917 298.391113,392.337524 
	C297.891754,392.349426 297.391968,392.343048 296.892395,392.346527 
	C286.645569,392.417938 286.712494,392.417480 286.641937,382.624359 
	C286.612244,378.503967 287.349670,374.321411 285.248444,369.324341 
	C290.440125,369.324341 295.036377,368.859314 299.466156,369.516510 
	C301.750732,369.855438 302.756805,372.541016 301.679749,375.183136 
	C294.402466,373.071167 294.363922,373.087189 294.789948,377.969360 
	C296.391418,379.440369 297.341766,376.865479 298.736786,377.282318 
	C300.320160,379.085663 300.807465,381.088531 299.732666,383.697235 
	C298.766052,383.928955 298.283112,383.803558 297.795990,383.697052 
	C296.476166,383.408356 295.057037,383.004211 294.454803,384.756989 
	C294.118408,385.736023 294.211517,386.858032 295.253204,387.382172 
	C296.556122,388.037781 297.958954,387.847168 298.883636,386.701385 
	C299.470215,385.974548 299.645264,384.915558 300.004852,384.005524 
z"/>
<path fill="#000000" opacity="1.000000" stroke="none" 
	d="
M213.230301,373.565094 
	C213.210388,379.802734 213.210388,385.607727 213.210388,391.383972 
	C208.916229,392.657227 208.916229,392.657227 204.824554,389.577850 
	C206.377563,384.043457 205.923996,378.350281 205.470978,372.803955 
	C205.044449,367.581970 200.978424,372.070251 198.463745,370.904205 
	C197.091492,367.990662 196.923798,365.747131 201.483582,365.786835 
	C206.476837,365.830292 211.471039,365.754333 216.464630,365.776093 
	C219.849670,365.790863 221.143616,367.581390 220.777130,370.925079 
	C218.331299,372.221802 214.100067,367.264435 213.230301,373.565094 
z"/>
<path fill="#000000" opacity="1.000000" stroke="none" 
	d="
M199.825592,248.173553 
	C198.919693,254.964767 196.567307,257.346619 191.270874,257.273651 
	C186.728699,257.211090 183.298477,254.225479 182.738632,249.847351 
	C182.142471,245.185364 184.800385,241.252869 189.310898,240.123306 
	C194.455002,238.835083 198.450104,241.757660 199.825592,248.173553 
z"/>
<path fill="#000000" opacity="1.000000" stroke="none" 
	d="
M306.768860,369.449554 
	C311.186127,369.490631 315.207336,369.779724 319.161804,369.390533 
	C323.912354,368.923035 324.478241,371.224762 323.860626,375.030914 
	C317.365845,372.967865 317.289062,373.022736 317.284149,379.566528 
	C317.281189,383.542969 317.283600,387.519379 317.283600,391.611267 
	C310.786163,393.461548 309.440796,392.303802 309.634888,385.294067 
	C309.733276,381.740540 310.386261,378.058044 309.127747,374.887939 
	C307.098907,373.596222 305.962677,375.394165 304.510406,375.349426 
	C301.674316,371.068329 302.021973,369.940460 306.768860,369.449554 
z"/>
<path fill="#000000" opacity="1.000000" stroke="none" 
	d="
M230.221024,386.497925 
	C230.275772,388.607422 232.089249,390.632446 229.791275,391.824493 
	C228.204086,392.647827 226.411453,392.474335 224.631134,391.440735 
	C222.295929,390.084961 223.371841,388.500397 223.434158,386.585907 
	C223.647873,380.021393 224.415085,373.397278 222.610352,366.717163 
	C224.989151,365.185547 227.348984,365.860687 230.176620,366.221954 
	C230.176620,372.928741 230.176620,379.491241 230.221024,386.497925 
z"/>
</svg>